<?xml version="1.0" encoding="UTF-8"?>
<!DOCTYPE svg PUBLIC "-//W3C//DTD SVG 1.1//EN" "http://www.w3.org/Graphics/SVG/1.1/DTD/svg11.dtd">
<!-- Creator: CorelDRAW 2020 (64 Bit) -->
<svg xmlns="http://www.w3.org/2000/svg" xml:space="preserve" width="1177.4mm" height="432.333mm" version="1.1" style="shape-rendering:geometricPrecision; text-rendering:geometricPrecision; image-rendering:optimizeQuality; fill-rule:evenodd; clip-rule:evenodd"
viewBox="0 0 117740.1 43233.35"
 xmlns:xlink="http://www.w3.org/1999/xlink"
 xmlns:xodm="http://www.corel.com/coreldraw/odm/2003">
 <defs>
  <style type="text/css">
   <![CDATA[
    .fil3 {fill:#7CC144}
    .fil6 {fill:#0076A5;fill-rule:nonzero}
    .fil5 {fill:#7CC144;fill-rule:nonzero}
    .fil1 {fill:url(#id0)}
    .fil0 {fill:url(#id1)}
    .fil4 {fill:url(#id2)}
    .fil2 {fill:url(#id3)}
    .fil7 {fill:url(#id4);fill-rule:nonzero}
   ]]>
  </style>
  <linearGradient id="id0" gradientUnits="userSpaceOnUse" x1="5309.08" y1="10961.25" x2="35411.68" y2="10961.25">
   <stop offset="0" style="stop-opacity:1; stop-color:#004B74"/>
   <stop offset="1" style="stop-opacity:1; stop-color:#02A7DF"/>
  </linearGradient>
  <linearGradient id="id1" gradientUnits="userSpaceOnUse" xlink:href="#id0" x1="-0" y1="18221.81" x2="40740.96" y2="18221.81">
  </linearGradient>
  <linearGradient id="id2" gradientUnits="userSpaceOnUse" xlink:href="#id0" x1="76267.24" y1="25514.26" x2="76266.85" y2="0.01">
  </linearGradient>
  <radialGradient id="id3" gradientUnits="userSpaceOnUse" gradientTransform="matrix(-1.60729 0.367924 -0.43423 -1.51172 86161 32909)" cx="30129.13" cy="17515.42" r="2679.6" fx="30129.13" fy="17515.42">
   <stop offset="0" style="stop-opacity:1; stop-color:#C1E1BA"/>
   <stop offset="0.721569" style="stop-opacity:1; stop-color:#7CC144"/>
   <stop offset="1" style="stop-opacity:1; stop-color:#188B4A"/>
  </radialGradient>
  <linearGradient id="id4" gradientUnits="userSpaceOnUse" xlink:href="#id0" x1="44036.03" y1="36585.87" x2="44036" y2="27454.59">
  </linearGradient>
 </defs>
 <g id="Camada_x0020_1">
  <metadata id="CorelCorpID_0Corel-Layer"/>
  <g id="_2143316868704">
   <g>
    <path class="fil0" d="M-0 15017.24c130.14,399.5 1257.29,1912.54 1486.86,2208.91 5235.33,6759.4 12109.87,7584.79 18935.74,2868.58 2565.27,-1772.37 6378.14,-3372.14 9562.96,-3416.79 1890.55,-26.47 3813.94,178.54 5499.76,849.12 1768.63,703.48 2696.47,1175.88 4077.52,2157.72 358.04,254.41 836.7,624.64 1178.12,884.09 -102.17,-358.77 -785.84,-1047.08 -995.66,-1268.03 -597.23,-628.73 -1402.65,-1452.73 -1711.67,-1718.28 -1360.97,-1169.72 -2625.02,-2076.47 -4291.6,-2860.13 -2241.92,-1054.18 -4912.76,-1615.32 -7704.63,-1234.96 -4733.34,644.84 -6489.26,2644.33 -10165.39,4569.23 -3658.06,1915.44 -8052.55,2268.44 -11738.63,217.76 -2627.43,-1461.73 -3792.96,-3068.77 -4133.37,-3257.22z"/>
    <path class="fil1" d="M20588 3108.67c7150.27,0 13153.2,4909.47 14823.69,11541.18 -418.96,-242.77 -854.1,-471.39 -1312.51,-686.91 -1168.88,-549.61 -2398.3,-950.17 -3656.77,-1186.01 -1953.49,-3418.97 -5634.71,-5723.56 -9854.4,-5723.56 -6264,0 -11342.05,5078.05 -11342.05,11342.05 0,140.16 3.41,279.48 8.5,418.4 -1346.86,-39.22 -2683.32,-322.44 -3945.36,-888.34 248.42,-8225.1 6993.6,-14816.82 15278.92,-14816.82z"/>
   </g>
   <path class="fil2" d="M12305.03 23905.54l0 7284.27c-474.52,-307.84 -931.03,-641.03 -1367.23,-998.29l0 -6321.96c452.31,37.71 908.26,49.68 1367.23,35.98zm-5357.58 -1083.56l0 2377.6c-465.41,-931.2 -838.32,-1916.73 -1106.61,-2944.5 364.52,208.75 733.58,397.53 1106.61,566.9zm1785.86 651.72l0 4499.29c-506.08,-625.71 -963.82,-1292.14 -1367.23,-1993.78l0 -2976c450.35,185.14 906.3,341.92 1367.23,470.49zm1785.86 353.78l0 6008.31c-484.04,-426.36 -940.71,-882.98 -1367.23,-1366.85l0 -4886.36c451.42,108.44 907.36,190.07 1367.23,244.9zm23635.28 1515.56l0 -7374.86c347.57,94.62 688.77,206.69 1020.67,338.73 217.71,86.56 435.02,174.46 651.28,264.77 -27.64,2437.36 -628.17,4736.85 -1671.95,6771.36zm-419.07 -7479.93l0 8243.22c-404.87,688.94 -862.72,1342.79 -1367.24,1956.97l0 -10434.52c460.43,54.55 918.11,130.98 1367.24,234.33zm-1785.86 -277.86l0 10966.28c-427.14,477.55 -883.7,928.07 -1367.24,1348.54l0 -12383.25c452.93,6.04 910.56,27.25 1367.24,68.43zm-1785.87 -69.77l0 12735.91c-436.53,353.11 -892.81,682.72 -1367.23,986.65l0 -13631.25c408.56,-53.15 810.29,-84.15 1200.89,-89.63 55.34,-0.79 110.78,-1.29 166.34,-1.68zm-1785.86 153.03l0 13828.03c-441.73,263.25 -898.08,504.46 -1367.23,722.84l0 -14255.39c458.8,-121.42 916.32,-221.18 1367.23,-295.48zm-1785.86 411.97l0 14326.22c-445.2,191.08 -901.38,361.28 -1367.23,510.06l0 -14377.48c451.86,-170.71 909.38,-324.97 1367.23,-458.8zm-1785.86 622.23l0 14341.28c-447.61,128.69 -903.78,236.84 -1367.23,324.69l0 -14057.16c443.92,-216.64 901.6,-421.03 1367.23,-608.81zm-1785.86 818.86l0 13920.4c-449.52,72.13 -905.58,124.38 -1367.23,156.56l0 -13305.06c431.55,-266.66 889.85,-525.83 1367.23,-771.9zm-1785.86 1038.46l0 13061.44c-214.46,8.95 -429.71,14.6 -646.35,14.6 -241.71,0 -481.97,-6.21 -720.88,-17.29l0 -12161.52c344.27,-210.54 688.54,-434.29 1032.58,-672.03 109.16,-75.42 220.84,-150.51 334.65,-225.2zm-1785.86 1146.83l0 11886.35c-461.77,-34.13 -917.83,-88.68 -1367.24,-163.04l0 -11001.87c455.23,-216.81 911.12,-457.01 1367.24,-721.44zm-1785.86 914.31l0 10734.3c-463.67,-90.14 -919.62,-201.98 -1367.24,-333.19l0 -9863.75c454.61,-155.04 910.45,-334.31 1367.24,-537.36zm-1785.87 673.21l0 9599.05c-466.07,-151.35 -922.08,-324.92 -1367.23,-518.73l0 -8728.78c453.83,-92.77 909.83,-210.04 1367.23,-351.54zm-1785.86 430.6l0 8460.66c-469.37,-221.57 -925.6,-466.3 -1367.23,-732.91l0 -7566.72c453.21,-28.87 909.05,-82.31 1367.23,-161.03z"/>
   <g>
    <path class="fil3" d="M43915.42 15020.04c0,-829.03 447.9,-2207.79 765.48,-2785.72 1296.67,-2360.03 3377.12,-1966.02 4095.48,813.76 66.92,259 101.55,448.34 144.08,704.66 64.9,391.15 78.55,1364.77 150.23,1597.02l-5146.48 -15.66 -8.79 -314.06zm6507.84 7679.29c-298.22,47.45 -2867.35,1833.7 -5034.07,34.19 -1262.1,-1048.25 -1630.54,-3537.42 -1596.64,-4991.61 383.66,-69.77 6148.41,-7.16 6758.33,-14.77 370.18,-4.58 280.27,-156.72 276.91,-527.45 -18.52,-2051.35 -40.29,-4064.04 -765.25,-6006.57 -130.93,-350.76 -340.97,-856 -540.88,-1165.13 -5.49,-8.51 -13.6,-19.7 -19.2,-28.2l-38.77 -56.85c-550.06,-842.63 -1304.06,-1579.62 -2516.42,-1606.37 -1189.47,-26.24 -1646.37,278.42 -2427.07,942.51 -846.1,719.76 -1477.96,2149.43 -1803.93,3264.99 -697.32,2386.22 -723.57,5262.19 -408.33,7681.7 132.32,1015.69 382.65,1822.96 725.74,2682.65 1166.54,2923.02 4052.57,3701.09 6682.07,2511.5 1176.16,-532.1 488.46,-390.71 707.51,-2720.59z"/>
    <path class="fil3" d="M72573.31 14545.39c-293.08,4.48 -782.76,204.56 -1094.02,327.04 -96.07,37.77 -259.39,88.12 -387.13,133.16 19.86,786.96 150.62,1421.68 150.79,2240.92 0.22,1429.51 -288.77,3678.59 -969.42,4948.86 -295.48,551.4 -313.44,580.22 -697.04,1053.45 -114.09,140.78 -200.92,193.82 -316.18,301.41 -200.59,187.22 -459.53,319.26 -745.06,438.27 -630.12,262.64 -1430.28,80.57 -1888.53,-228.28 -932.6,-628.56 -1435.04,-1681.12 -1801.3,-2934.77 -426.02,-1458.1 -442.58,-2640.13 -445.38,-4289.86 -1.84,-1105.66 225.55,-2077.59 472.07,-3078.4 207.19,-840.95 657.37,-1746.75 1191.37,-2361.66 1122.22,-1292.2 2807.48,-1082.77 3823.23,380.58 121.41,174.97 391.1,602.21 432.73,796.31 -105.92,143.4 -433.51,259.39 -755.68,619.21 -437.71,488.85 -802.74,1122.28 -970.54,1778.14 -106.98,418.02 -164.66,732.35 -172.78,1216.28 9.07,-8.67 22.33,-34.97 26.13,-27.03l70.39 -83.87c37.71,-53.1 35.14,-58.19 71.5,-119.34 56.24,-94.62 107.94,-174.24 161.87,-263.26 726.76,-1199.48 1996.07,-2146.35 3364.54,-2557.32 1389.22,-417.12 2164.82,-1081.04 2818.61,-2203.54 184.92,-317.47 437.65,-882.46 477.88,-1270.94 -206.79,81.86 -509.6,508.77 -760.77,704.1 -782.99,608.92 -1729.41,1337.69 -2767.87,1634.96l-247.13 -507.87c-611.5,-1150.31 -1507.39,-2399.82 -2947.7,-2686.29 -1805.56,-359.1 -3144.53,506.97 -4080.49,1844.44 -8.11,11.64 -32.23,44.76 -40.28,56.45 -411.75,596 -853.43,1556.13 -1075.73,2335.53 -123.37,432.51 -222.29,804.87 -320.99,1284.37 -283.51,1377.53 -358.09,3096.64 -249.38,4455.31 77.94,974.57 145.81,1885.74 415.95,2812.8 417.51,1432.8 1096.65,3135.69 2390.92,3998.3 1629.31,1086.01 3487.18,708.79 4657.74,-495.4 79.95,-82.25 114.53,-103.01 196.28,-182.4l173.5 -205.34c126.17,-152.86 226.38,-292.41 350.2,-456.01 611.05,-807.27 1170.17,-2448.72 1357.72,-3480.19 289.66,-1593.16 160.64,-1696.17 299.9,-2914.46 110.56,-966.78 -167.8,-2438.08 -169.92,-3013.66z"/>
    <path class="fil3" d="M61131.05 22722.83c-141.39,-6.99 -724.12,409.4 -1370.2,612.28 -761.83,239.25 -1421.84,264.48 -2154.35,-28.09 -770.23,-307.62 -1377.42,-1159.37 -1695.9,-1904.92 -845.98,-1980.24 -859.47,-5007.11 -399.83,-7246.96 202.27,-985.59 668.01,-1997.97 1361.25,-2708.61 840.95,-861.99 2059.8,-817.23 3079.85,-386.96 1247.27,526.11 1041.43,1045.84 1041.88,-966.23 0.05,-280.65 81.8,-732.07 -114.87,-906.03 -683.28,-604.44 -2031.44,-1100.28 -3216.6,-787.68 -2123.19,560.07 -3147.67,2490.96 -3697,4454.86 -589.22,2106.8 -681.71,5258.55 -308.96,7440.49 369.16,2160.57 1236.47,4289.03 2958.32,5186.66 970.43,505.85 2215.18,618.99 3377.91,168.58 546.7,-211.78 537.13,-209.21 994.71,-521.75 140.04,-95.62 158.51,-151.07 169.92,-346.84 20.37,-348.75 33.74,-1779.88 -26.13,-2058.8z"/>
    <path class="fil3" d="M68404.53 16442.33c187.88,-58.47 257.26,-196.22 386.96,-325.36 673.99,-670.75 2004.07,-1281.79 2924.58,-1622.32 230.47,-85.27 444.32,-145.53 679.09,-221.4 1258.24,-406.71 2022.25,-387.29 2721.26,-1683.8 399.72,-741.47 587.94,-2634.09 393.95,-3052.49 -84.76,107.03 -246.74,786.79 -522.81,1219.12 -707.34,1107.9 -1431.41,1913.44 -2930.24,2325.13 -1406,386.17 -2271.35,1141.63 -3054.56,2208.12 -152.8,208.03 -576.52,884.15 -598.23,1153z"/>
   </g>
   <path class="fil4" d="M83476.99 18383.45c-120.36,802.24 -48.07,971.94 -271.87,2007.66 -230.58,1066.94 -734.31,2380.23 -1676.98,2921.96 -570.6,327.93 -1208.67,362.51 -1808.19,52.2 -774.65,-400.95 -1221.48,-1057.6 -1625.56,-1787.15 -187.1,-337.72 -124.04,-621.29 -124.32,-1062.91l3.41 -6916.34c4.64,-1236.03 -62.72,-1023.35 556.22,-1765.21 763.06,-914.64 2063.88,-1548.07 3153.98,-805.09 927.23,631.97 1287.84,1689.79 1594.79,2998.61 223.3,952.35 354.06,3318.93 198.52,4356.27zm14014.12 -11795.87c597.73,2.35 987.94,-271.47 1287.34,-655.81 575.62,-739 -177.2,-3326.2 -447.23,-4306.31l-77.88 -252.84c-35.92,-75.14 -17.62,-42.47 -55.34,-89.24 -289.49,828.3 -532.6,1431.68 -1160.21,2106.07 -194.37,208.81 -292.4,231.41 -555.32,577.98 -406.82,536.18 -586.2,1092.51 -324.24,1727.67 194.83,472.4 652.12,889.85 1332.88,892.48zm-1293.15 18911.52l1674.35 -8.78c-13.04,-2786.56 -2.69,-5588.16 -2.24,-8385.91 0.23,-1389.55 1.51,-2779.17 1.34,-4168.72 -0.05,-702.64 -83.14,-3740.92 37.94,-4161.01l-1745.02 -10.74 33.63 16735.17zm-6234.01 -14183.49c-89.35,-225.76 -299.51,-2159.11 -336.6,-2551.11l-1347.32 -0.06c74.42,737.05 25.24,11420.22 21.99,13124.61l3.81 3591.81 1700.48 8.73 0 -11606.48c0,-176.24 475.98,-1001.86 571.93,-1133.91 622.91,-857.51 1457.77,-1510.52 2574.05,-1688.62 291.34,-46.44 528.63,-17.17 779.07,-76.99l-23.89 -2578.64c-40.67,-135.17 -120.01,-81.68 -296.6,-72.34 -169.25,8.95 -357.86,-2.85 -522.3,10.91 -556.44,46.72 -1319.45,474.3 -1689.41,823.27l-723.34 837.32c-134.39,202.93 -242.32,352.27 -378.84,616.75 -119.8,232.03 -211,490.3 -333.03,694.75zm12155.42 -7114.58c-88.35,177.04 -40.46,3650.84 -32.29,4562.97 -315.84,0.67 -1775.45,-49.07 -1885.95,-0.4 -121.59,97.86 3.07,-96.79 -55.06,62.11 -32.51,88.91 -8.79,-61.83 -14.55,92.21l11.64 2217.41 1940.12 1.74 6.88 5304.15c8.17,2038.65 -191.91,5281.99 280.26,7059.8 249.6,939.76 760.83,1753.18 1556.63,2138.86 955.15,462.94 2185.13,325.91 3038.73,-98.76l1.56 -2329.54c-833.62,264.65 -1680.16,573.89 -2416.77,-45.43 -938.92,-789.37 -763.29,-2835.63 -754.39,-4214.22l-4.53 -7816.43 3031.84 -0.56c0.23,-669.51 -24.67,-1829.22 19.03,-2368.15l-2577.97 -1.28c-569.64,7.77 -474.08,155.37 -472.79,-1040.81l4.14 -3505.54c-195.33,-104.29 -1443.27,-81.01 -1676.53,-18.13zm11181.74 6535.93c1458.77,-323.46 2118.11,1325.1 2416.66,2446.76 97.19,365.03 258.84,1566.48 253.02,1936.04 -2.86,180.83 24.67,147.54 -75.82,208.36 -92.37,55.89 -2109.82,22.04 -2391.98,22.04 -3063.8,0 -2814.31,328.33 -2609.19,-905.24 233.82,-1406.28 868.37,-3366.77 2407.31,-3707.96zm580.84 15178.71c933.21,0 1488.59,15.72 2396.57,-348.86 267.9,-107.53 437.88,-196.67 671.14,-325.24 314.22,-173.23 388.41,-186.82 388.41,-604.95l-4.08 -1932.57c-360.61,30.16 -1090.94,829.37 -2978.3,829.37 -1464.87,0 -2376.37,-908.59 -2862.03,-1863.07 -489.58,-962.03 -886.05,-2630.17 -773.09,-3943.41l6984.32 -10.8c147.04,-2186.36 -143.35,-6056.36 -1313.63,-7762.1 -325.24,-474.08 -681.6,-907.09 -1199.82,-1217.9 -1708.71,-1024.75 -3459.93,-113.47 -4463.87,1377.58 -92.55,137.37 -175.8,250.5 -246.75,370.85 -1921.09,3258.34 -2070.65,10790.59 233.21,13766.54 354.73,458.19 753.61,840 1284.7,1130.39 426.63,233.26 1268.7,534.17 1883.22,534.17zm-37614.72 -401.39l1283.64 -25.29 346.9 -1840.36c102.78,146.76 246.86,525.66 378.29,733.02 1439.13,2271.58 3834.86,1815.63 5064.84,173.34 1342.78,-1793.03 1921.83,-4324.67 1940.68,-7213.67 15.44,-2358.58 -193.76,-5666.1 -1662.43,-7495.1 -841.34,-1047.86 -1503.98,-1525.18 -2946.8,-1511.87 -643.5,5.93 -1269.49,330.9 -1632.22,646.69 -753.05,655.53 -679.25,814.26 -1065.32,1258.3l1.07 -10233.88 -1709.04 -5.42 0.39 25514.25z"/>
   <path class="fil5" d="M62902.55 41006.11l-989.88 0 0 395.95 538.24 0 0 1361.09c-37.12,18.56 -129.92,49.49 -290.78,49.49 -501.12,0 -989.88,-414.51 -989.88,-1701.36 0,-1293.03 563,-1707.54 1082.69,-1707.54 222.72,0 371.2,43.3 482.57,98.98l105.17 -408.32c-129.92,-68.06 -334.09,-117.55 -593.93,-117.55 -736.22,0 -1565.25,556.81 -1571.44,2177.74 -6.19,760.97 197.98,1336.34 501.13,1658.05 278.4,309.34 618.68,408.33 983.69,408.33 266.04,0 563,-68.05 742.42,-142.29l0 -2072.57zm2919.92 2177.74l476.38 0 0 -1658.05c0,-98.99 6.19,-191.79 18.56,-272.22 49.49,-346.46 272.22,-624.87 575.37,-624.87 37.12,0 68.05,0 98.99,6.19l0 -488.75c-30.94,0 -61.87,-6.19 -98.99,-6.19 -278.4,0 -532.06,235.1 -631.05,519.69l-12.37 0 -24.75 -470.19 -426.89 0c6.19,222.72 24.75,519.68 24.75,773.34l0 2221.05zm5481.24 -1453.89c6.18,-74.24 6.18,-154.67 6.18,-266.03 0,-680.55 -241.28,-1323.97 -853.77,-1323.97 -600.12,0 -1008.44,606.3 -1008.44,1577.63 0,915.64 371.2,1503.38 1088.87,1503.38 235.1,0 488.75,-49.49 655.8,-142.29l-74.25 -352.65c-117.54,68.05 -290.77,117.55 -494.93,117.55 -346.46,0 -705.3,-197.98 -711.48,-1113.62l1392.02 0zm-1385.84 -352.65c18.56,-408.32 179.42,-866.14 488.76,-866.14 228.91,0 457.82,266.03 445.45,866.14l-934.21 0zm5932.88 352.65c6.18,-74.24 6.18,-154.67 6.18,-266.03 0,-680.55 -241.28,-1323.97 -853.77,-1323.97 -600.12,0 -1008.44,606.3 -1008.44,1577.63 0,915.64 371.2,1503.38 1088.87,1503.38 235.1,0 488.75,-49.49 655.8,-142.29l-74.25 -352.65c-117.54,68.05 -290.77,117.55 -494.93,117.55 -346.46,0 -705.3,-197.98 -711.48,-1113.62l1392.02 0zm-1385.84 -352.65c18.56,-408.32 179.42,-866.14 488.76,-866.14 228.91,0 457.82,266.03 445.44,866.14l-934.2 0zm4206.77 1806.54l476.38 0 0 -1886.96c0,-98.99 6.19,-191.79 18.56,-266.03 61.87,-321.72 253.66,-488.76 451.64,-488.76 346.45,0 414.51,358.83 414.51,711.48l0 1930.27 476.38 0 0 -2010.7c0,-723.85 -309.34,-1033.19 -723.85,-1033.19 -315.53,0 -556.81,167.04 -686.73,408.33l-12.38 0 -24.74 -358.83 -414.52 0c6.19,241.28 24.75,420.69 24.75,773.34l0 2221.05z"/>
   <g>
    <path class="fil6" d="M44806.58 43183.85l476.38 0 0 -3742.99 760.97 0 0 -426.89 -1998.32 0 0 426.89 760.97 0 0 3742.99zm3885.05 0l476.39 0 0 -1936.46c0,-74.24 6.18,-160.85 18.56,-228.91 74.24,-315.52 241.28,-476.38 464.01,-476.38 321.71,0 402.14,346.46 402.14,711.48l0 1930.27 476.38 0 0 -1985.95c0,-754.79 -321.71,-1057.94 -699.11,-1057.94 -173.23,0 -290.78,43.31 -402.14,111.36 -92.8,61.87 -185.6,154.67 -247.47,259.85l-12.37 0 0 -1608.56 -476.39 0 0 4281.24zm6533 -1453.89c6.18,-74.24 6.18,-154.67 6.18,-266.03 0,-680.55 -241.28,-1323.97 -853.77,-1323.97 -600.12,0 -1008.44,606.3 -1008.44,1577.63 0,915.64 371.2,1503.38 1088.87,1503.38 235.1,0 488.75,-49.49 655.8,-142.29l-74.25 -352.65c-117.54,68.05 -290.77,117.55 -494.93,117.55 -346.46,0 -705.3,-197.98 -711.48,-1113.62l1392.02 0zm-1385.84 -352.65c18.56,-408.32 179.42,-866.14 488.76,-866.14 228.91,0 457.82,266.03 445.45,866.14l-934.21 0z"/>
    <path class="fil6" d="M86083.63 43041.56c117.54,86.61 420.7,179.41 705.29,179.41 661.98,0 1169.3,-451.63 1169.3,-1169.3 0,-464 -222.73,-847.59 -723.86,-1200.23 -395.95,-284.59 -612.48,-445.45 -612.48,-859.96 0,-284.59 191.79,-593.93 600.11,-593.93 216.54,0 389.77,68.05 494.94,142.29l117.55 -408.32c-98.99,-74.24 -327.9,-154.67 -587.74,-154.67 -661.99,0 -1101.25,464.01 -1101.25,1095.05 0,538.25 457.83,928.02 785.72,1156.93 327.9,247.47 550.63,482.57 550.63,866.15 0,420.7 -259.85,705.29 -692.92,705.29 -210.35,0 -457.82,-74.24 -600.12,-167.04l-105.17 408.33zm5611.16 -2901.6c-513.5,0 -1002.26,457.82 -1002.26,1552.88 0,1051.75 433.08,1540.51 971.33,1540.51 457.82,0 996.07,-389.77 996.07,-1546.7 0,-1045.56 -433.08,-1546.69 -965.14,-1546.69zm-18.56 383.58c420.7,0 501.13,705.29 501.13,1163.11 0,464.01 -80.43,1169.3 -488.75,1169.3 -433.08,0 -519.69,-674.35 -519.69,-1169.3 0,-457.82 80.42,-1163.11 507.31,-1163.11zm3817 2660.31l476.38 0 0 -4281.24 -476.38 0 0 4281.24zm5277.08 -2994.39l-476.38 0 0 1973.58c0,98.98 -6.19,191.79 -24.75,272.21 -24.74,136.11 -148.48,395.95 -426.88,395.95 -327.9,0 -402.14,-346.45 -402.14,-816.65l0 -1825.09 -476.39 0 0 1893.15c0,742.41 204.17,1150.74 730.04,1150.74 321.72,0 550.63,-216.54 643.43,-365.02l12.37 0 30.94 315.52 414.51 0c-6.19,-222.72 -24.75,-482.57 -24.75,-816.65l0 -2177.74zm3074.59 -655.8l0 655.8 -365.02 0 0 365.01 365.02 0 0 1732.3c0,414.51 61.87,618.68 179.42,754.79 117.55,129.92 284.59,179.41 470.19,179.41 154.67,0 266.03,-18.56 352.65,-49.49l-18.56 -365.02c-55.68,12.37 -117.55,18.56 -191.79,18.56 -173.23,0 -315.53,-105.18 -315.53,-494.94l0 -1775.61 575.37 0 0 -365.01 -575.37 0 0 -791.91 -476.38 136.11zm4250.07 3650.19l0 -2994.39 -476.38 0 0 2994.39 476.38 0zm-247.47 -4077.08c-154.67,0 -278.4,123.74 -278.4,309.34 0,185.6 117.55,309.34 272.22,309.34 179.41,0 296.96,-123.74 290.77,-309.34 0,-185.6 -111.36,-309.34 -284.59,-309.34zm4083.04 1033.19c-513.5,0 -1002.26,457.82 -1002.26,1552.88 0,1051.75 433.07,1540.51 971.32,1540.51 457.82,0 996.07,-389.77 996.07,-1546.7 0,-1045.56 -433.07,-1546.69 -965.13,-1546.69zm-18.56 383.58c420.7,0 501.12,705.29 501.12,1163.11 0,464.01 -80.42,1169.3 -488.75,1169.3 -433.07,0 -519.69,-674.35 -519.69,-1169.3 0,-457.82 80.43,-1163.11 507.32,-1163.11zm3817 2660.31l476.38 0 0 -1886.96c0,-98.99 6.19,-191.79 18.56,-266.03 61.86,-321.72 253.65,-488.76 451.63,-488.76 346.46,0 414.52,358.83 414.52,711.48l0 1930.27 476.38 0 0 -2010.7c0,-723.85 -309.34,-1033.19 -723.86,-1033.19 -315.52,0 -556.81,167.04 -686.73,408.33l-12.37 0 -24.75 -358.83 -414.51 0c6.19,241.28 24.75,420.69 24.75,773.34l0 2221.05z"/>
   </g>
   <path class="fil7" d="M44035.66 36346.63c255.33,237.31 729.5,390.86 1167.2,390.86 960.5,0 1762.95,-656.09 1762.95,-2010.13 0,-935.27 -534.97,-1549.48 -1215.83,-2052.01 -583.6,-460.66 -729.5,-711.92 -729.5,-1172.58 0,-432.74 255.33,-851.51 765.97,-851.51 303.96,0 559.28,125.63 778.13,293.14l255.33 -809.63c-243.17,-167.52 -595.76,-348.99 -1057.77,-348.99 -911.87,0 -1617.05,781.72 -1617.05,1870.54 0,781.72 413.38,1354.05 1179.35,1926.38 595.76,460.65 753.81,809.64 753.81,1326.13 0,600.25 -328.27,977.15 -863.24,977.15 -376.9,0 -741.65,-195.43 -948.34,-348.99l-231.01 809.64zm13706.84 -2973.32c12.15,-167.51 12.15,-348.98 12.15,-600.25 0,-1535.52 -474.17,-2987.28 -1677.84,-2987.28 -1179.35,0 -1981.8,1368.01 -1981.8,3559.61 0,2065.97 729.5,3392.1 2139.86,3392.1 462.01,0 960.5,-111.68 1288.78,-321.06l-145.9 -795.68c-231.01,153.55 -571.44,265.23 -972.67,265.23 -680.86,0 -1386.04,-446.7 -1398.2,-2512.67l2735.62 0zm-2723.46 -795.68c36.47,-921.31 352.59,-1954.29 960.51,-1954.29 449.85,0 899.71,600.25 875.39,1954.29l-1835.9 0zm10144.46 4076.1l936.19 0 0 -3741.08c0,-223.34 12.15,-432.73 36.47,-614.2 97.27,-781.72 534.96,-1409.89 1130.72,-1409.89 72.95,0 133.74,0 194.53,13.96l0 -1102.78c-60.79,0 -121.58,-13.96 -194.53,-13.96 -547.12,0 -1045.61,530.45 -1240.15,1172.58l-24.31 0 -48.63 -1060.9 -838.92 0c12.15,502.53 48.63,1172.57 48.63,1744.9l0 5011.37zm9256.9 -6756.27l1531.94 6756.27 838.92 0 1531.95 -6756.27 -924.03 0 -729.5 3796.91c-85.11,516.5 -182.37,1088.82 -243.17,1647.2l-36.47 0c-72.95,-586.29 -170.21,-1186.54 -255.32,-1647.2l-741.66 -3796.91 -972.66 0zm12065.46 6756.27l0 -6756.27 -936.18 0 0 6756.27 936.18 0zm-486.32 -9199.14c-303.96,0 -547.13,279.18 -547.13,697.96 0,418.78 231.01,697.96 534.96,697.96 352.59,0 583.6,-279.18 571.44,-697.96 0,-418.78 -218.85,-697.96 -559.27,-697.96zm10946.9 8208.04c-218.85,111.67 -425.54,181.47 -680.87,181.47 -863.23,0 -1386.04,-949.23 -1386.04,-2526.63 0,-1326.13 425.54,-2610.38 1361.73,-2610.38 303.95,0 547.12,111.68 668.7,181.47l182.38 -879.43c-170.22,-111.67 -510.65,-209.39 -826.77,-209.39 -1471.15,0 -2322.23,1577.4 -2322.23,3517.73 0,2233.48 863.24,3420.02 2152.02,3420.02 413.38,0 765.97,-111.68 972.66,-251.27l-121.58 -823.59zm10655.11 -2289.32c12.15,-167.51 12.15,-348.98 12.15,-600.25 0,-1535.52 -474.17,-2987.28 -1677.84,-2987.28 -1179.35,0 -1981.8,1368.01 -1981.8,3559.61 0,2065.97 729.5,3392.1 2139.86,3392.1 462.01,0 960.5,-111.68 1288.78,-321.06l-145.9 -795.68c-231.01,153.55 -571.44,265.23 -972.67,265.23 -680.86,0 -1386.04,-446.7 -1398.2,-2512.67l2735.62 0zm-2723.46 -795.68c36.47,-921.31 352.59,-1954.29 960.5,-1954.29 449.86,0 899.71,600.25 875.4,1954.29l-1835.9 0zm9767.55 3769c255.32,237.31 729.49,390.86 1167.19,390.86 960.51,0 1762.95,-656.09 1762.95,-2010.13 0,-935.27 -534.96,-1549.48 -1215.83,-2052.01 -583.59,-460.66 -729.49,-711.92 -729.49,-1172.58 0,-432.74 255.32,-851.51 765.97,-851.51 303.96,0 559.28,125.63 778.13,293.14l255.32 -809.63c-243.16,-167.52 -595.75,-348.99 -1057.76,-348.99 -911.88,0 -1617.06,781.72 -1617.06,1870.54 0,781.72 413.39,1354.05 1179.36,1926.38 595.75,460.65 753.81,809.64 753.81,1326.13 0,600.25 -328.28,977.15 -863.24,977.15 -376.9,0 -741.65,-195.43 -948.34,-348.99l-231.01 809.64z"/>
  </g>
 </g>
</svg>
